<svg width="12" height="18" viewBox="-0.5 0 10 13" fill="none" xmlns="http://www.w3.org/2000/svg" xmlns:xlink="http://www.w3.org/1999/xlink">
	<desc>
		Created with Pixso.
	</desc>
	<defs/>
	<path id="path" d="M4.61 9C1.86 9 -0.39 6.75 -0.39 4C-0.39 1.25 1.86 -1 4.61 -1C7.36 -1 9.61 1.25 9.61 4C9.61 6.75 7.36 9 4.61 9ZM4.61 -0.17C2.28 -0.17 0.44 1.66 0.44 4C0.44 6.33 2.28 8.16 4.61 8.16C6.94 8.16 8.78 6.33 8.78 4C8.78 1.66 6.94 -0.17 4.61 -0.17Z" fill="#010101" fill-opacity="0.589116" fill-rule="nonzero"/>
	<path id="path" d="M4.61 12.33C3.19 12.33 2.11 11.25 2.11 9.83L2.11 9.66C2.11 9.5 2.19 9.41 2.28 9.33C2.36 9.25 2.53 9.25 2.69 9.33C3.86 9.91 5.28 9.91 6.44 9.33C6.61 9.25 6.69 9.25 6.86 9.33C6.94 9.41 7.03 9.58 7.03 9.66L7.03 9.83C7.11 11.25 6.03 12.33 4.61 12.33ZM3.03 10.25C3.19 11 3.86 11.5 4.61 11.5C5.36 11.5 6.03 11 6.19 10.25C5.19 10.66 4.03 10.66 3.03 10.25Z" fill="#010101" fill-opacity="0.589116" fill-rule="nonzero"/>
	<path id="path" d="M6.11 6.25C5.86 6.25 5.69 6.08 5.69 5.83L5.69 4.41L4.86 5.16C4.69 5.33 4.44 5.33 4.28 5.16L3.61 4.41L3.61 5.83C3.61 6.08 3.44 6.25 3.19 6.25C2.94 6.25 2.78 6.08 2.78 5.83L2.78 3.5C2.78 3.33 2.86 3.16 2.94 3.08C3.11 3 3.28 3.08 3.36 3.16L4.61 4.25L5.78 3.16C5.94 3.08 6.11 3.08 6.28 3.08C6.44 3.16 6.53 3.33 6.53 3.5L6.53 5.83C6.44 6.08 6.28 6.25 6.11 6.25Z" fill="#010101" fill-opacity="0.589116" fill-rule="nonzero"/>
</svg>
