<svg width="16" height="16" viewBox="0 -1 12 16" fill="none" xmlns="http://www.w3.org/2000/svg" xmlns:xlink="http://www.w3.org/1999/xlink">
    <desc>
        Created with Pixso.
    </desc>
    <defs/>
    <path id="path" d="M7.8 4.9L7.8 2.1C7.8 0.94 6.93 0 5.85 0L3.25 6.3L3.25 14L10.8 14C11.45 14 12.01 13.5 12.1 12.81L13 6.51C13.06 6.1 12.95 5.69 12.7 5.38C12.45 5.07 12.08 4.89 11.7 4.9L7.8 4.9Z" fill="#a6baba" fill-opacity="0" fill-rule="nonzero"/>
    <path id="path" d="M7.8 2.1C7.8 0.94 6.93 0 5.85 0L3.25 6.3L3.25 14L10.8 14C11.45 14 12.01 13.5 12.1 12.81L13 6.51C13.06 6.1 12.95 5.69 12.7 5.38C12.45 5.07 12.08 4.89 11.7 4.9L7.8 4.9L7.8 2.1Z" stroke="#a6baba" stroke-opacity="" stroke-width="1.500000" stroke-linejoin="round"/>
    <path id="path" d="M3.25 6.22L1.51 6.22C0.75 6.2 0.1 6.88 0 7.69L0 12.59C0.1 13.41 0.75 14.01 1.51 13.99L3.25 13.99L3.25 6.22Z" fill="#a6baba" fill-opacity="0" fill-rule="nonzero"/>
    <path id="path" d="M1.51 6.22C0.75 6.2 0.1 6.88 0 7.69L0 12.59C0.1 13.41 0.75 14.01 1.51 13.99L3.25 13.99L3.25 6.22L1.51 6.22Z" stroke="#a6baba" stroke-opacity="" stroke-width="1.500000" stroke-linejoin="round"/>
</svg>
